<svg width="1600" height="800" viewBox="0 20 1600 800" fill="none" xmlns="http://www.w3.org/2000/svg">
  <metadata>
    Secret Guard cover artwork with a minimal shield emblem.
  </metadata>
  <defs>
    <linearGradient id="bg" x1="0" y1="0" x2="1600" y2="820" gradientUnits="userSpaceOnUse">
      <stop stop-color="#F8FBFF"/>
      <stop offset="1" stop-color="#EEF6F5"/>
    </linearGradient>
    <radialGradient id="glow" cx="0" cy="0" r="1" gradientUnits="userSpaceOnUse" gradientTransform="translate(800 340) rotate(90) scale(340 420)">
      <stop stop-color="#DDEEFF"/>
      <stop offset="1" stop-color="#DDEEFF" stop-opacity="0"/>
    </radialGradient>
    <linearGradient id="shieldOuter" x1="800" y1="190" x2="800" y2="700" gradientUnits="userSpaceOnUse">
      <stop stop-color="#2E90FA"/>
      <stop offset="1" stop-color="#1D4ED8"/>
    </linearGradient>
    <linearGradient id="shieldInner" x1="800" y1="255" x2="800" y2="640" gradientUnits="userSpaceOnUse">
      <stop stop-color="#34C59A"/>
      <stop offset="1" stop-color="#159570"/>
    </linearGradient>
    <filter id="shadow" x="-20%" y="-20%" width="140%" height="160%">
      <feDropShadow dx="0" dy="20" stdDeviation="28" flood-color="#0F172A" flood-opacity="0.12"/>
    </filter>
    <filter id="soft" x="-20%" y="-20%" width="140%" height="160%">
      <feDropShadow dx="0" dy="10" stdDeviation="18" flood-color="#0F172A" flood-opacity="0.08"/>
    </filter>
  </defs>

  <rect width="1600" height="820" fill="url(#bg)"/>
  <ellipse cx="800" cy="330" rx="360" ry="260" fill="url(#glow)"/>

  <g opacity="0.65">
    <path d="M230 680C340 642 465 642 574 680" stroke="#D7E8F8" stroke-width="4" stroke-linecap="round"/>
    <path d="M1026 680C1135 642 1260 642 1370 680" stroke="#DCEFE7" stroke-width="4" stroke-linecap="round"/>
  </g>

  <g filter="url(#soft)">
    <rect x="268" y="258" width="228" height="264" rx="24" fill="#FFFFFF" fill-opacity="0.9"/>
    <text x="302" y="300" font-family="Arial, Helvetica, sans-serif" font-size="22" font-weight="800" fill="#1F6FEB">config.xml</text>
    <rect x="302" y="314" width="102" height="18" rx="9" fill="#E8F1FB"/>
    <rect x="302" y="352" width="148" height="12" rx="6" fill="#B6D4FE" opacity="0.65"/>
    <rect x="302" y="384" width="126" height="12" rx="6" fill="#B6D4FE" opacity="0.65"/>
    <rect x="302" y="432" width="92" height="18" rx="9" fill="#DCFCE7"/>
    <rect x="302" y="466" width="116" height="18" rx="9" fill="#FEF3C7"/>
    <rect x="302" y="500" width="136" height="12" rx="6" fill="#D1FAE5" opacity="0.8"/>
  </g>

  <g filter="url(#soft)">
    <rect x="1104" y="258" width="228" height="264" rx="24" fill="#FFFFFF" fill-opacity="0.9"/>
    <text x="1138" y="300" font-family="Arial, Helvetica, sans-serif" font-size="22" font-weight="800" fill="#158266">Jenkinsfile</text>
    <rect x="1138" y="314" width="106" height="18" rx="9" fill="#E7F6F0"/>
    <rect x="1138" y="352" width="146" height="12" rx="6" fill="#A7F3D0" opacity="0.72"/>
    <rect x="1138" y="384" width="122" height="12" rx="6" fill="#A7F3D0" opacity="0.72"/>
    <rect x="1138" y="432" width="96" height="18" rx="9" fill="#DBEAFE"/>
    <rect x="1138" y="466" width="114" height="18" rx="9" fill="#FEE2E2"/>
    <rect x="1138" y="500" width="138" height="12" rx="6" fill="#D1FAE5" opacity="0.76"/>
  </g>

  <g opacity="0.72">
    <path d="M496 390C596 390 664 374 716 342" stroke="#A9D0FF" stroke-width="6" stroke-linecap="round"/>
    <path d="M1104 390C1004 390 936 374 884 342" stroke="#9AE8C7" stroke-width="6" stroke-linecap="round"/>
  </g>

  <g filter="url(#shadow)" opacity="0.82">
    <path d="M800 236L972 293V418C972 525 899 611 800 661C701 611 628 525 628 418V293L800 236Z" fill="url(#shieldOuter)"/>
    <path d="M800 282L930 325V411C930 495 874 561 800 600C726 561 670 495 670 411V325L800 282Z" fill="url(#shieldInner)"/>
    <path d="M800 263L945 311V415C945 508 883 582 800 625C717 582 655 508 655 415V311L800 263Z" stroke="white" stroke-opacity="0.28" stroke-width="7"/>
  </g>

  <g opacity="0.2">
    <path d="M800 324L906 359V435C906 509 858 568 800 601C742 568 694 509 694 435V359L800 324Z" fill="#FFFFFF"/>
  </g>

  <g opacity="0.18">
    <path d="M800 314L917 353V438C917 518 865 582 800 618C735 582 683 518 683 438V353L800 314Z" stroke="#D8E8FF" stroke-width="8"/>
  </g>

  <g opacity="0.18">
    <path d="M800 320L911 357V436C911 513 861 574 800 608C739 574 689 513 689 436V357L800 320Z" stroke="#D6F2E5" stroke-width="4"/>
  </g>

  <g filter="url(#soft)">
    <path d="M800 346L882 373V432C882 489 845 534 800 563C755 534 718 489 718 432V373L800 346Z" fill="#FFFFFF" fill-opacity="0.18"/>
  </g>

  <g filter="url(#shadow)">
    <path d="M800 354L872 378V431C872 480 841 519 800 543C759 519 728 480 728 431V378L800 354Z" fill="url(#shieldOuter)"/>
    <path d="M800 374L854 392V428C854 466 830 495 800 513C770 495 746 466 746 428V392L800 374Z" fill="url(#shieldInner)"/>
    <path d="M800 365L862 385V430C862 473 834 507 800 527C766 507 738 473 738 430V385L800 365Z" stroke="#FFFFFF" stroke-opacity="0.4" stroke-width="4"/>
  </g>

  <g>
    <path d="M785 429L797 441L819 417" stroke="#FFFFFF" stroke-width="9" stroke-linecap="round" stroke-linejoin="round"/>
  </g>

  <g filter="url(#soft)">
    <text x="800" y="732" text-anchor="middle" font-family="Arial, Helvetica, sans-serif" font-size="26" font-weight="700" letter-spacing="0.6" fill="#1E3A5F">Jenkins Secret Guard Plugin</text>
    <text x="800" y="758" text-anchor="middle" font-family="Arial, Helvetica, sans-serif" font-size="20" font-weight="600" fill="#4B5563">Protect Jenkins secrets in config and pipeline definitions</text>
  </g>
</svg>
